# Made in Blockbench 4.7.4
mtllib diamond.mtl

o cone
v 0.375 0.5 -0.10048094716167094
v 0 0 0
v 0.13397459621556132 0.37500000000000006 -0.4999999999999999
v 0.3660254037844386 0.37500000000000006 -0.3660254037844386
v 0.49999999999999994 0.375 -0.13397459621556126
v 0.49999999999999994 0.375 0.13397459621556143
v 0.36602540378443865 0.37499999999999994 0.36602540378443865
v 0.1339745962155615 0.37499999999999994 0.49999999999999994
v -0.13397459621556113 0.37499999999999994 0.5
v -0.3660254037844386 0.37499999999999994 0.36602540378443876
v -0.49999999999999994 0.375 0.13397459621556132
v -0.5 0.375 -0.13397459621556104
v -0.3660254037844387 0.37500000000000006 -0.3660254037844385
v -0.1339745962155613 0.37500000000000006 -0.4999999999999999
v 0.10048094716167112 0.49999999999999994 0.37499999999999994
v 0.27451905283832895 0.49999999999999994 0.274519052838329
v 3.965082230804132e-18 0.5 5.726725772656353e-17
v 0.375 0.5 0.10048094716167108
v 0.27451905283832895 0.5 -0.2745190528383289
v -0.27451905283832906 0.5 -0.2745190528383288
v -0.375 0.5 -0.10048094716167078
v -0.27451905283832895 0.49999999999999994 0.2745190528383291
v -0.10048094716167084 0.49999999999999994 0.37500000000000006
v -0.3749999999999999 0.5 0.100480947161671
v 0.100480947161671 0.5 -0.37499999999999994
v -0.10048094716167097 0.5 -0.37499999999999994
vt 0.16237968749999998 0.6623796875
vt 0.11887031249999999 0.6875
vt 0.09375 0.59375
vt 0.17411875000000002 0.84375
vt 0.23522052114344735 0.8712072161623095
vt 0.140625 1
vt 0.1875 0.6188703125
vt 0.16237968749999998 0.6623796875
vt 0.09375 0.59375
vt 0.23522052114344735 0.8712072161623095
vt 0.27969938238595426 0.921296696682872
vt 0.14062499999999997 1
vt 0.1875 0.5686296875
vt 0.1875 0.6188703125
vt 0.09375 0.59375
vt 0.20943772891163648 0.5261159393426891
vt 0.2749372710883635 0.5120754574816858
vt 0.27493727108836347 0.671875
vt 0.16237968749999998 0.5251203125
vt 0.1875 0.5686296875
vt 0.09375 0.59375
vt 0.1265506176140457 0.765046696682872
vt 0.17102947885655262 0.7149572161623095
vt 0.265625 0.84375
vt 0.11887031249999999 0.5
vt 0.16237968749999998 0.5251203125
vt 0.09375 0.59375
vt 0.17102947885655262 0.7149572161623095
vt 0.23213125 0.6875
vt 0.265625 0.84375
vt 0.06862968750000001 0.5
vt 0.11887031249999999 0.5
vt 0.09375 0.59375
vt 0.23213125 0.6875
vt 0.29911875 0.6875
vt 0.265625 0.84375
vt 0.025120312500000005 0.5251203125
vt 0.06862968750000001 0.5
vt 0.09375 0.59375
vt 0.29911875 0.6875
vt 0.3602205211434474 0.7149572161623095
vt 0.265625 0.84375
vt 0 0.5686296875
vt 0.025120312500000005 0.5251203125
vt 0.09375 0.59375
vt 0.3602205211434474 0.7149572161623095
vt 0.40469938238595426 0.765046696682872
vt 0.265625 0.84375
vt 0 0.6188703125
vt 0 0.5686296875
vt 0.09375 0.59375
vt 0.3656877289116365 0.4792409393426891
vt 0.4311872710883635 0.4652004574816858
vt 0.43118727108836347 0.625
vt 0.025120312500000005 0.6623796875
vt 0 0.6188703125
vt 0.09375 0.59375
vt 0.0015506176140457073 0.921296696682872
vt 0.04602947885655263 0.8712072161623095
vt 0.14062500000000003 1
vt 0.06862968750000001 0.6875
vt 0.025120312500000005 0.6623796875
vt 0.09375 0.59375
vt 0.04602947885655263 0.8712072161623095
vt 0.10713125 0.84375
vt 0.140625 1
vt 0.11887031249999999 0.6875
vt 0.06862968750000001 0.6875
vt 0.09375 0.59375
vt 0.10713125 0.84375
vt 0.17411875000000002 0.84375
vt 0.140625 1
vt 0.34947417947982795 0.6660269647308856
vt 0.37343375960987096 0.6279593864703638
vt 0.4201921875 0.6463379016887982
vt 0.41181875 0.6905316516887983
vt 0.30041479093062984 0.6204144494370673
vt 0.3366392181979724 0.59375
vt 0.37343375960987096 0.6279593864703638
vt 0.34947417947982795 0.6660269647308856
vt 0.06418281249999999 0.78125
vt 0.07255625 0.828125
vt 0.005568749999999997 0.828125
vt 0.013942187500000001 0.78125
vt 0.541150820520172 0.9629019647308855
vt 0.5171912403901291 0.9248343864703638
vt 0.5539857818020276 0.890625
vt 0.5902102090693702 0.9172894494370673
vt 0.47880625 0.9874066516887983
vt 0.4704328125 0.9432129016887982
vt 0.5171912403901291 0.9248343864703638
vt 0.541150820520172 0.9629019647308855
vt 0.41181875 0.9874066516887983
vt 0.4201921875 0.9432129016887982
vt 0.4704328125 0.9432129016887982
vt 0.47880625 0.9874066516887983
vt 0.34947417947982795 0.9629019647308855
vt 0.37343375960987096 0.9248343864703638
vt 0.4201921875 0.9432129016887982
vt 0.41181875 0.9874066516887983
vt 0.37343375960987096 0.9248343864703638
vt 0.34947417947982795 0.9629019647308855
vt 0.30041479093062984 0.9172894494370673
vt 0.3366392181979724 0.890625
vt 0.005568749999999997 0.765625
vt 0.013942187500000001 0.71875
vt 0.06418281249999999 0.71875
vt 0.07255625 0.765625
vt 0.5539857818020276 0.59375
vt 0.5902102090693702 0.6204144494370673
vt 0.541150820520172 0.6660269647308856
vt 0.5171912403901291 0.6279593864703638
vt 0.47880625 0.6905316516887983
vt 0.4704328125 0.6463379016887982
vt 0.5171912403901291 0.6279593864703638
vt 0.541150820520172 0.6660269647308856
vt 0.41181875 0.6905316516887983
vt 0.4201921875 0.6463379016887982
vt 0.4704328125 0.6463379016887982
vt 0.47880625 0.6905316516887983
vn 0 1 1.2246467991473532e-16
vn 0.29999999999999993 -0.7999999999999999 -0.5196152422706634
vn 0 1 1.2246467991473532e-16
vn 0.5196152422706632 -0.7999999999999999 -0.3000000000000001
vn 0 1 1.2246467991473532e-16
vn 0.6000000000000001 -0.7999999999999999 -9.797174393178825e-17
vn 0 1 1.2246467991473532e-16
vn 0.5196152422706632 -0.8 0.2999999999999999
vn 0 1 1.2246467991473532e-16
vn 0.3 -0.8 0.519615242270663
vn 0 1 1.2246467991473532e-16
vn 2.4860452413803275e-16 -0.8000000000000002 0.5999999999999999
vn 0 1 1.2246467991473532e-16
vn -0.29999999999999977 -0.8000000000000002 0.5196152422706634
vn 0 1 1.2246467991473532e-16
vn -0.5196152422706634 -0.8 0.29999999999999977
vn 0 1 1.2246467991473532e-16
vn -0.6000000000000001 -0.7999999999999999 2.633051813722825e-17
vn 0 1 1.2246467991473532e-16
vn -0.5196152422706635 -0.7999999999999999 -0.29999999999999993
vn 0 1 1.2246467991473532e-16
vn -0.3 -0.7999999999999999 -0.5196152422706634
vn 0 1 1.2246467991473532e-16
vn 0 -0.7999999999999998 -0.6000000000000002
vn 0.3535533905932738 0.7071067811865475 0.6123724356957947
vn 0.6123724356957946 0.7071067811865474 0.3535533905932741
vn 0.7071067811865477 0.7071067811865474 8.65956056235493e-17
vn 0.6123724356957945 0.7071067811865477 -0.3535533905932738
vn 0.353553390593274 0.7071067811865475 -0.6123724356957945
vn 0 0.7071067811865475 -0.7071067811865476
vn -0.35355339059327395 0.7071067811865479 -0.6123724356957941
vn -0.6123724356957947 0.7071067811865476 -0.35355339059327334
vn -0.7071067811865474 0.7071067811865478 4.772399275161222e-16
vn -0.6123724356957946 0.7071067811865477 0.3535533905932737
vn -0.3535533905932734 0.7071067811865475 0.6123724356957949
vn 3.9064432189257255e-16 0.7071067811865475 0.7071067811865477
usemtl m_cd339bff-a9e3-29df-e22d-da05b3104c52
f 19/1/1 25/2/1 17/3/1
f 3/4/2 4/5/2 2/6/2
f 1/7/3 19/8/3 17/9/3
f 4/10/4 5/11/4 2/12/4
f 18/13/5 1/14/5 17/15/5
f 5/16/6 6/17/6 2/18/6
f 16/19/7 18/20/7 17/21/7
f 6/22/8 7/23/8 2/24/8
f 15/25/9 16/26/9 17/27/9
f 7/28/10 8/29/10 2/30/10
f 23/31/11 15/32/11 17/33/11
f 8/34/12 9/35/12 2/36/12
f 22/37/13 23/38/13 17/39/13
f 9/40/14 10/41/14 2/42/14
f 24/43/15 22/44/15 17/45/15
f 10/46/16 11/47/16 2/48/16
f 21/49/17 24/50/17 17/51/17
f 11/52/18 12/53/18 2/54/18
f 20/55/19 21/56/19 17/57/19
f 12/58/20 13/59/20 2/60/20
f 26/61/21 20/62/21 17/63/21
f 13/64/22 14/65/22 2/66/22
f 25/67/23 26/68/23 17/69/23
f 14/70/24 3/71/24 2/72/24
f 7/73/25 16/74/25 15/75/25 8/76/25
f 6/77/26 18/78/26 16/79/26 7/80/26
f 18/81/27 6/82/27 5/83/27 1/84/27
f 4/85/28 19/86/28 1/87/28 5/88/28
f 3/89/29 25/90/29 19/91/29 4/92/29
f 14/93/30 26/94/30 25/95/30 3/96/30
f 13/97/31 20/98/31 26/99/31 14/100/31
f 20/101/32 13/102/32 12/103/32 21/104/32
f 11/105/33 24/106/33 21/107/33 12/108/33
f 24/109/34 11/110/34 10/111/34 22/112/34
f 9/113/35 23/114/35 22/115/35 10/116/35
f 8/117/36 15/118/36 23/119/36 9/120/36