# Made in Blockbench 4.6.5
mtllib heart.mtl

o cube
v 0.25 0.397747564417433 -0.3093592167691145
v -0.25 0.397747564417433 -0.3093592167691145
v -0.25 0.7071067811865476 -0.618718433538229
v 0.25 0.7071067811865476 -0.618718433538229
v -0.25 0.9722718241315028 -0.3535533905932737
v -0.25 0.6629126073623883 -0.04419417382415919
v 0.25 0.6629126073623883 -0.04419417382415919
v 0.25 0.9722718241315028 -0.3535533905932737
v -0.25 0.6629126073623883 0.0441941738241593
v 0.25 0.6629126073623883 0.0441941738241593
v 0.25 0.618718433538229 5.551115123125783e-17
v 0.25 0.35355339059327373 -0.26516504294495524
v -0.25 0.35355339059327373 -0.26516504294495524
v -0.25 0.618718433538229 5.551115123125783e-17
v -0.25 0.397747564417433 0.3093592167691146
v -0.25 0.35355339059327373 0.26516504294495535
v -0.25 0.08838834764831843 6.938893903907228e-18
v 0.25 0.08838834764831843 6.938893903907228e-18
v 0.25 0.35355339059327373 0.26516504294495535
v 0.25 0.397747564417433 0.3093592167691146
v -0.25 0.7071067811865475 0.6187184335382291
v -0.25 0.9722718241315027 0.35355339059327384
v 0.25 0.9722718241315027 0.35355339059327384
v 0.25 0.7071067811865475 0.6187184335382291
v -0.1875 0.7513009550107067 0.6629126073623883
v -0.1875 1.016465997955662 0.3977475644174331
v -0.1875 1.016465997955662 0.3093592167691146
v -0.1875 0.7071067811865475 5.551115123125783e-17
v -0.1875 1.016465997955662 -0.30935921676911443
v -0.1875 1.016465997955662 -0.3977475644174329
v -0.1875 0.7513009550107068 -0.6629126073623882
v -0.1875 0.6629126073623883 -0.6629126073623882
v -0.1875 0.3535533905932738 -0.35355339059327373
v -0.1875 0.30935921676911454 -0.3093592167691145
v -0.1875 0.04419417382415922 -0.044194173824159216
v -0.1875 0 0
v -0.1875 0.044194173824159216 0.04419417382415922
v -0.1875 0.3093592167691145 0.30935921676911454
v -0.1875 0.35355339059327373 0.3535533905932738
v -0.1875 0.6629126073623882 0.6629126073623883
v 0.1875 1.016465997955662 0.3977475644174331
v 0.1875 0.7513009550107067 0.6629126073623883
v 0.1875 0.6629126073623882 0.6629126073623883
v 0.1875 0.35355339059327373 0.3535533905932738
v 0.1875 0.3093592167691145 0.30935921676911454
v 0.1875 0.044194173824159216 0.04419417382415922
v 0.1875 0 0
v 0.1875 0.04419417382415922 -0.044194173824159216
v 0.1875 0.30935921676911454 -0.3093592167691145
v 0.1875 0.3535533905932738 -0.35355339059327373
v 0.1875 0.6629126073623883 -0.6629126073623882
v 0.1875 0.7513009550107068 -0.6629126073623882
v 0.1875 1.016465997955662 -0.3977475644174329
v 0.1875 1.016465997955662 -0.30935921676911443
v 0.1875 0.7071067811865475 5.551115123125783e-17
v 0.1875 1.016465997955662 0.3093592167691146
vt 0.09375 0.875
vt 0 0.875
vt 0 0.78125
vt 0.09375 0.78125
vt 0.21875 0.6875
vt 0.3125 0.6875
vt 0.3125 0.78125
vt 0.21875 0.78125
vt 0.203125 0.90625
vt 0.296875 0.90625
vt 0.296875 1
vt 0.203125 1
vt 0 0.671875
vt 0.09375 0.671875
vt 0.09375 0.765625
vt 0 0.765625
vt 0.3125 0.78125
vt 0.40625 0.78125
vt 0.40625 0.875
vt 0.3125 0.875
vt 0.28125 0.6875
vt 0.1875 0.6875
vt 0.1875 0.59375
vt 0.28125 0.59375
vt 0.203125 0.6875
vt 0.203125 0.78125
vt 0.09375 0.78125
vt 0.09375 0.6875
vt 0.109375 0.890625
vt 0.203125 0.890625
vt 0.203125 1
vt 0.109375 1
vt 0.21875 0.78125
vt 0.21875 0.875
vt 0.109375 0.875
vt 0.109375 0.78125
vt 0 0.546875
vt 0.09375 0.546875
vt 0.09375 0.65625
vt 0 0.65625
vt 0.3125 0.765625
vt 0.40625 0.765625
vt 0.40625 0.78125
vt 0.3125 0.78125
vt 0.4375 0.71875
vt 0.34375 0.71875
vt 0.34375 0.703125
vt 0.4375 0.703125
vt 0.21875 0.78125
vt 0.3125 0.78125
vt 0.3125 0.796875
vt 0.21875 0.796875
vt 0.3125 0.875
vt 0.40625 0.875
vt 0.40625 0.890625
vt 0.3125 0.890625
vt 0.09375 0.890625
vt 0 0.890625
vt 0 0.875
vt 0.09375 0.875
vt 0.109375 0.875
vt 0.09375 0.875
vt 0.09375 0.78125
vt 0.109375 0.78125
vt 0 0.65625
vt 0.09375 0.65625
vt 0.09375 0.671875
vt 0 0.671875
vt 0.203125 0.6875
vt 0.21875 0.6875
vt 0.21875 0.78125
vt 0.203125 0.78125
vt 0 0.765625
vt 0.09375 0.765625
vt 0.09375 0.78125
vt 0 0.78125
vt 0.3125 0.796875
vt 0.3125 0.90625
vt 0.21875 0.90625
vt 0.21875 0.796875
vt 0.1875 0.6875
vt 0.09375 0.6875
vt 0.09375 0.578125
vt 0.1875 0.578125
vt 0.09375 0.890625
vt 0.09375 1
vt 0 1
vt 0 0.890625
vt 0.3125 0.890625
vt 0.40625 0.890625
vt 0.40625 1
vt 0.3125 1
vt 0.4375 0.703125
vt 0.34375 0.703125
vt 0.34375 0.6875
vt 0.4375 0.6875
vt 0.4375 0.6875
vt 0.34375 0.6875
vt 0.34375 0.671875
vt 0.4375 0.671875
vt 0.34375 0.65625
vt 0.4375 0.65625
vt 0.4375 0.671875
vt 0.34375 0.671875
vt 0.428346875 0.9375
vt 0.40625 0.9375
vt 0.4172984375 0.9183640625
vt 0.203125 0.890625
vt 0.21875 0.890625
vt 0.203125 0.90625
vt 0.381471875 0.6058625
vt 0.3704234375 0.625
vt 0.359375 0.6058625
vt 0.546875 0.765625
vt 0.328125 0.765625
vt 0.3125 0.75
vt 0.546875 0.75
vt 0.28125 0.6875
vt 0.28125 0.453125
vt 0.296875 0.46875
vt 0.296875 0.6875
vt 0.4264515625 1
vt 0.415403125 0.9808640625
vt 0.4375 0.9808640625
vt 0.428346875 0.8941359375
vt 0.40625 0.8941359375
vt 0.4172984375 0.875
vt 0.209596875 0.5746140625
vt 0.1985484375 0.59375
vt 0.1875 0.5746140625
vt 0.415403125 0.8628859375
vt 0.4264515625 0.84375
vt 0.4375 0.8628859375
vt 0.328125 0.734375
vt 0.5625 0.734375
vt 0.546875 0.75
vt 0.328125 0.75
vt 0.328125 0.75
vt 0.3125 0.75
vt 0.3125 0.53125
vt 0.328125 0.515625
vt 0.4264515625 0.8125
vt 0.415403125 0.7933640625
vt 0.4375 0.7933640625
vt 0.4108265625 0.625
vt 0.399778125 0.6058625
vt 0.421875 0.6058625
vt 0.4172984375 0.96875
vt 0.40625 0.9496140625
vt 0.428346875 0.9496140625
vt 0.4264515625 0.8246140625
vt 0.4375 0.84375
vt 0.415403125 0.84375
vt 0.34375 0.59375
vt 0.34375 0.609375
vt 0.328125 0.59375
vt 0.296875 0.578125
vt 0.3125 0.578125
vt 0.3125 0.6875
vt 0.296875 0.6875
vt 0.21875 0.875
vt 0.21875 0.890625
vt 0.109375 0.890625
vt 0.109375 0.875
vt 0.3125 1
vt 0.296875 1
vt 0.296875 0.90625
vt 0.3125 0.90625
vt 0.359375 0.65625
vt 0.34375 0.65625
vt 0.34375 0.5625
vt 0.359375 0.5625
vt 0.4375 0.71875
vt 0.4375 0.734375
vt 0.328125 0.734375
vt 0.328125 0.71875
vt 0.34375 0.71875
vt 0.328125 0.71875
vt 0.328125 0.609375
vt 0.34375 0.609375
vt 0.359375 0.65625
vt 0.359375 0.640625
vt 0.453125 0.640625
vt 0.453125 0.65625
vt 0.453125 0.625
vt 0.453125 0.640625
vt 0.359375 0.640625
vt 0.359375 0.625
vn 1 0 0
vn -1 0 0
vn 0 0.7071067811865475 0.7071067811865476
vn 0 -0.7071067811865475 -0.7071067811865476
vn 0 -0.7071067811865476 0.7071067811865475
vn 0 0.7071067811865476 -0.7071067811865475
vn -1 0 0
vn 0 0.7071067811865475 0.7071067811865476
vn 1 0 0
vn 0 -0.7071067811865475 -0.7071067811865476
vn 0 -0.7071067811865476 0.7071067811865475
vn 0 1.1102230246251565e-16 -1
vn -1 0 0
vn 0 -0.7071067811865476 0.7071067811865475
vn 1 0 0
vn 1 0 0
vn 0 -0.7071067811865475 -0.7071067811865476
vn -1 0 0
vn 0 -0.7071067811865475 -0.7071067811865476
vn -1 0 0
vn 0 0.7071067811865476 -0.7071067811865475
vn 1 0 0
vn 0 -0.7071067811865476 0.7071067811865475
vn 0 1 1.1102230246251565e-16
vn 0 1 1.1102230246251565e-16
vn 0 -1.1102230246251565e-16 1
vn 0.5773502691896258 0.816496580927726 5.551115123125783e-17
vn 1 0 0
vn 0.5773502691896258 0.816496580927726 5.551115123125783e-17
vn 0.7071067811865476 -0.5 -0.5000000000000001
vn 0.7071067811865476 -0.5000000000000001 0.5
vn 0.5773502691896258 -5.551115123125783e-17 0.816496580927726
vn 0.5773502691896258 5.551115123125783e-17 -0.816496580927726
vn 0.5773502691896258 0.816496580927726 5.551115123125783e-17
vn -0.5773502691896258 5.551115123125783e-17 -0.816496580927726
vn -0.7071067811865476 -0.5 -0.5000000000000001
vn -0.7071067811865476 -0.5000000000000001 0.5
vn -0.5773502691896258 0.816496580927726 5.551115123125783e-17
vn -0.5773502691896258 0.816496580927726 5.551115123125783e-17
vn -0.5773502691896258 -5.551115123125783e-17 0.816496580927726
vn -0.5773502691896258 0.816496580927726 5.551115123125783e-17
vn -1 0 0
vn 0.7071067811865476 0.5000000000000001 -0.5
vn 0.7071067811865476 0.5 0.5000000000000001
vn 0.7071067811865476 0.5000000000000001 -0.5
vn -0.7071067811865476 0.5000000000000001 -0.5
vn -0.7071067811865476 0.5 0.5000000000000001
vn -0.7071067811865476 0.5000000000000001 -0.5
vn -0.7071067811865476 0.5 0.5000000000000001
vn 0.7071067811865476 0.5 0.5000000000000001
usemtl m_8ba934f9-1517-0878-44f0-a35d96083588
f 11/1/1 19/2/1 18/3/1 12/4/1
f 13/5/2 17/6/2 16/7/2 14/8/2
f 25/9/3 42/10/3 41/11/3 26/12/3
f 34/13/4 49/14/4 48/15/4 35/16/4
f 37/17/5 46/18/5 45/19/5 38/20/5
f 30/21/6 53/22/6 52/23/6 31/24/6
f 2/25/7 6/26/7 5/27/7 3/28/7
f 28/29/8 55/30/8 54/31/8 29/32/8
f 4/33/9 8/34/9 7/35/9 1/36/9
f 32/37/10 51/38/10 50/39/10 33/40/10
f 36/41/11 47/42/11 46/43/11 37/44/11
f 31/45/12 52/46/12 51/47/12 32/48/12
f 14/49/13 16/50/13 15/51/13 9/52/13
f 38/53/14 45/54/14 44/55/14 39/56/14
f 10/57/15 20/58/15 19/59/15 11/60/15
f 7/61/16 11/62/16 12/63/16 1/64/16
f 33/65/17 50/66/17 49/67/17 34/68/17
f 2/69/18 13/70/18 14/71/18 6/72/18
f 35/73/19 48/74/19 47/75/19 36/76/19
f 15/77/20 21/78/20 22/79/20 9/80/20
f 27/81/21 56/82/21 55/83/21 28/84/21
f 10/85/22 23/86/22 24/87/22 20/88/22
f 39/89/23 44/90/23 43/91/23 40/92/23
f 29/93/24 54/94/24 53/95/24 30/96/24
f 26/97/25 41/98/25 56/99/25 27/100/25
f 40/101/26 43/102/26 42/103/26 25/104/26
f 55/105/27 10/106/27 7/107/27
f 11/108/28 7/109/28 10/110/28
f 56/111/29 41/112/29 23/113/29
f 4/114/30 18/115/30 47/116/30 51/117/30
f 43/118/31 47/119/31 18/120/31 24/121/31
f 42/122/32 43/123/32 24/124/32
f 52/125/33 4/126/33 51/127/33
f 53/128/34 54/129/34 8/130/34
f 31/131/35 32/132/35 3/133/35
f 32/134/36 36/135/36 17/136/36 3/137/36
f 40/138/37 21/139/37 17/140/37 36/141/37
f 29/142/38 30/143/38 5/144/38
f 26/145/39 27/146/39 22/147/39
f 25/148/40 21/149/40 40/150/40
f 6/151/41 9/152/41 28/153/41
f 14/154/42 9/155/42 6/156/42
f 10/157/43 55/158/43 56/159/43 23/160/43
f 8/161/44 54/162/44 55/163/44 7/164/44
f 53/165/45 8/166/45 4/167/45 52/168/45
f 5/169/46 30/170/46 31/171/46 3/172/46
f 6/173/47 28/174/47 29/175/47 5/176/47
f 22/177/48 27/178/48 28/179/48 9/180/48
f 26/181/49 22/182/49 21/183/49 25/184/49
f 23/185/50 41/186/50 42/187/50 24/188/50